{"title":"Vår tid är nu (2017) S01 E05 - 720p x264 - SWE (ENG SUBS) [BRS","magnet":"magnet:?xt=urn:btih:57d6746ad2551eab2c77afd903714605f184f3cd&dn=Va%CC%8Ar+tid+a%CC%88r+nu+%282017%29+S01+E05+-+720p+x264+-+SWE+%28ENG+SUBS%29+%5BBRS&tr=udp%3A%2F%2Ftracker.leechers-paradise.org%3A6969&tr=udp%3A%2F%2Fzer0day.ch%3A1337&tr=udp%3A%2F%2Fopen.demonii.com%3A1337&tr=udp%3A%2F%2Ftracker.coppersurfer.tk%3A6969&tr=udp%3A%2F%2Fexodus.desync.com%3A6969","uploader":"BRSHNKV","categoryP":"video","categoryS":"hd___tv_shows","size":"544173573","seeders":"2","leechers":"0","description":"Tech:\r\n\r\n\r\nFormat : MPEG-4\r\nFormat profile : Base Media / Version 2\r\nCodec ID : mp42\r\nFile size : 519 MiB\r\nDuration : 57mn 5s\r\nOverall bit rate mode : Variable\r\nOverall bit rate : 1 271 Kbps\r\nMovie name : Va&#x30A;r tid a&#x308;r nu S01 E05 - 720p x264 [BRSHNKV]\r\nEncoded date : UTC 2017-12-10 21:35:28\r\nTagged date : UTC 2017-12-10 21:35:28\r\nWriting application : HandBrake 1.0.2 2017012200\r\n\r\nVideo\r\nID : 1\r\nFormat : AVC\r\nFormat/Info : Advanced Video Codec\r\nFormat profile : [email protected]\r\nFormat settings, CABAC : Yes\r\nFormat settings, ReFrames : 8 frames\r\nCodec ID : avc1\r\nCodec ID/Info : Advanced Video Coding\r\nDuration : 57mn 5s\r\nBit rate : 1 100 Kbps\r\nWidth : 1 280 pixels\r\nHeight : 720 pixels\r\nDisplay aspect ratio : 16:9\r\nFrame rate mode : Constant\r\nFrame rate : 25.000 fps\r\nColor space : YUV\r\nChroma subsampling : 4:2:0\r\nBit depth : 8 bits\r\nScan type : Progressive\r\nBits/(Pixel*Frame) : 0.048\r\nStream size : 449 MiB (87%)\r\nWriting library : x264 core 148 r2708 86b7198\r\nEncoded date : UTC 2017-12-10 21:35:28\r\nTagged date : UTC 2017-12-10 21:35:28\r\nColor range : Limited\r\nColor primaries : BT.709\r\nTransfer characteristics : BT.709\r\nMatrix coefficients : BT.709\r\n\r\nAudio\r\nID : 2\r\nFormat : AAC\r\nFormat/Info : Advanced Audio Codec\r\nFormat profile : LC\r\nCodec ID : 40\r\nDuration : 57mn 5s\r\nBit rate mode : Variable\r\nBit rate : 165 Kbps\r\nChannel(s) : 2 channels\r\nChannel positions : Front: L R\r\nSampling rate : 48.0 KHz\r\nCompression mode : Lossy\r\nStream size : 67.2 MiB (13%)\r\nTitle : Stereo / Stereo\r\nLanguage : Swedish\r\nEncoded date : UTC 2017-12-10 21:35:28\r\nTagged date : UTC 2017-12-10 21:35:28","last_updated":"2017-12-12T12:00:50.304Z","parsed":{"xt":"urn:btih:57d6746ad2551eab2c77afd903714605f184f3cd","dn":"Vår tid är nu (2017) S01 E05 - 720p x264 - SWE (ENG SUBS) [BRS","tr":["udp://exodus.desync.com:6969","udp://open.demonii.com:1337","udp://tracker.coppersurfer.tk:6969","udp://tracker.leechers-paradise.org:6969","udp://zer0day.ch:1337"],"infoHash":"57d6746ad2551eab2c77afd903714605f184f3cd","infoHashBuffer":{"type":"Buffer","data":[87,214,116,106,210,85,30,171,44,119,175,217,3,113,70,5,241,132,243,205]},"name":"Vår tid är nu (2017) S01 E05 - 720p x264 - SWE (ENG SUBS) [BRS","announce":["udp://exodus.desync.com:6969","udp://open.demonii.com:1337","udp://tracker.coppersurfer.tk:6969","udp://tracker.leechers-paradise.org:6969","udp://zer0day.ch:1337"],"urlList":[]}}